# xmcd
#
# Track frame offsets: 
#        150
#        8262
#        16509
#        30718
#        43469
#        56345
#        65466
#        81934
#        94295
#        103800
#        114441
#        128565
#        140483
#        158253
#        163855
#        172705
#        185482
#        197906
#        207938
#        225730
#        239731
#        251171
#        264625
#        278855
#        294539
#        304972
#        322854
#
# Disc length: 4532 seconds
#
# Revision: 2
# Processed by: cddbd v1.4PL0 Copyright (c) Steve Scherf et al.
# Submitted via: ExactAudioCopy v0.90b3
#
DISCID=7611b21b
DTITLE=i - i
DYEAR=1900
DGENRE=
TTITLE0=Skladba 1
TTITLE1=Skladba 2
TTITLE2=Skladba 3
TTITLE3=Skladba 4
TTITLE4=Skladba 5
TTITLE5=Skladba 6
TTITLE6=Skladba 7
TTITLE7=Skladba 8
TTITLE8=Skladba 9
TTITLE9=Skladba 10
TTITLE10=Skladba 11
TTITLE11=Skladba 12
TTITLE12=Skladba 13
TTITLE13=Skladba 14
TTITLE14=Skladba 15
TTITLE15=Skladba 16
TTITLE16=Skladba 17
TTITLE17=Skladba 18
TTITLE18=Skladba 19
TTITLE19=Skladba 20
TTITLE20=Skladba 21
TTITLE21=Skladba 22
TTITLE22=Skladba 23
TTITLE23=Skladba 24
TTITLE24=Skladba 25
TTITLE25=Skladba 26
TTITLE26=Skladba 27
EXTD=
EXTT0=
EXTT1=
EXTT2=
EXTT3=
EXTT4=
EXTT5=
EXTT6=
EXTT7=
EXTT8=
EXTT9=
EXTT10=
EXTT11=
EXTT12=
EXTT13=
EXTT14=
EXTT15=
EXTT16=
EXTT17=
EXTT18=
EXTT19=
EXTT20=
EXTT21=
EXTT22=
EXTT23=
EXTT24=
EXTT25=
EXTT26=
PLAYORDER=
